<svg width="446" height="121" viewBox="0 0 446 121" fill="none" xmlns="http://www.w3.org/2000/svg">
<path d="M120.823 89.3611C116.792 89.3611 113.18 88.7068 109.987 87.3982C106.795 86.0897 104.23 84.1529 102.293 81.5881C100.409 79.0233 99.4141 75.935 99.3094 72.3233H113.599C113.809 74.3647 114.515 75.935 115.719 77.0342C116.923 78.0811 118.493 78.6045 120.43 78.6045C122.419 78.6045 123.989 78.1596 125.141 77.2697C126.293 76.3276 126.868 75.0451 126.868 73.4225C126.868 72.0615 126.397 70.9362 125.455 70.0463C124.565 69.1565 123.44 68.4237 122.079 67.8479C120.77 67.2721 118.886 66.6178 116.426 65.885C112.866 64.7858 109.961 63.6866 107.711 62.5873C105.46 61.4881 103.523 59.8655 101.9 57.7194C100.278 55.5733 99.4664 52.7729 99.4664 49.3182C99.4664 44.1885 101.325 40.1842 105.041 37.3053C108.757 34.3741 113.599 32.9085 119.566 32.9085C125.638 32.9085 130.532 34.3741 134.249 37.3053C137.965 40.1842 139.954 44.2147 140.216 49.3967H125.691C125.586 47.617 124.932 46.2299 123.728 45.2354C122.524 44.1885 120.98 43.6651 119.095 43.6651C117.473 43.6651 116.164 44.11 115.17 44.9999C114.175 45.8374 113.678 47.0674 113.678 48.6901C113.678 50.4698 114.515 51.8569 116.19 52.8514C117.865 53.8459 120.482 54.919 124.042 56.0706C127.601 57.2745 130.48 58.426 132.678 59.5252C134.929 60.6245 136.866 62.2209 138.489 64.3147C140.111 66.4084 140.923 69.1041 140.923 72.4018C140.923 75.5424 140.111 78.3951 138.489 80.96C136.918 83.5248 134.615 85.5662 131.579 87.0842C128.543 88.6021 124.958 89.3611 120.823 89.3611ZM193.939 44.9999L166.459 109.618H152.012L162.062 87.3197L144.239 44.9999H159.235L169.364 72.4018L179.414 44.9999H193.939ZM225.489 44.5288C230.619 44.5288 234.702 46.2038 237.738 49.5538C240.826 52.8514 242.37 57.4053 242.37 63.2155V88.8115H229.023V65.0213C229.023 62.0901 228.264 59.8131 226.746 58.1905C225.228 56.5678 223.186 55.7565 220.621 55.7565C218.057 55.7565 216.015 56.5678 214.497 58.1905C212.979 59.8131 212.22 62.0901 212.22 65.0213V88.8115H198.794V44.9999H212.22V50.81C213.581 48.8733 215.413 47.3553 217.716 46.2561C220.019 45.1045 222.61 44.5288 225.489 44.5288Z" fill="#FAFAFA"/>
<path d="M272.35 33.6936C278.16 33.6936 283.237 34.8452 287.582 37.1483C291.926 39.4514 295.276 42.6967 297.632 46.8842C300.039 51.0194 301.243 55.8088 301.243 61.2526C301.243 66.644 300.039 71.4334 297.632 75.6209C295.276 79.8084 291.9 83.0537 287.503 85.3568C283.159 87.66 278.107 88.8115 272.35 88.8115H251.7V33.6936H272.35ZM271.486 77.1912C276.563 77.1912 280.515 75.8041 283.342 73.0299C286.168 70.2557 287.582 66.3299 287.582 61.2526C287.582 56.1752 286.168 52.2233 283.342 49.3967C280.515 46.5702 276.563 45.1569 271.486 45.1569H265.126V77.1912H271.486ZM322.173 33.6936V88.8115H308.746V33.6936H322.173ZM329.625 61.1741C329.625 55.7303 330.803 50.8885 333.159 46.6487C335.514 42.3565 338.786 39.0327 342.973 36.6772C347.213 34.2694 352.002 33.0655 357.341 33.0655C363.884 33.0655 369.485 34.7928 374.144 38.2475C378.802 41.7022 381.917 46.4131 383.487 52.3803H368.726C367.627 50.0772 366.057 48.3237 364.015 47.1198C362.026 45.9159 359.749 45.3139 357.184 45.3139C353.049 45.3139 349.699 46.7534 347.134 49.6323C344.57 52.5112 343.287 56.3584 343.287 61.1741C343.287 65.9897 344.57 69.8369 347.134 72.7158C349.699 75.5947 353.049 77.0342 357.184 77.0342C359.749 77.0342 362.026 76.4322 364.015 75.2283C366.057 74.0244 367.627 72.2709 368.726 69.9678H383.487C381.917 75.935 378.802 80.6459 374.144 84.1006C369.485 87.5029 363.884 89.2041 357.341 89.2041C352.002 89.2041 347.213 88.0264 342.973 85.6709C338.786 83.2631 335.514 79.9393 333.159 75.6994C330.803 71.4596 329.625 66.6178 329.625 61.1741ZM426.02 79.0756H405.449L402.152 88.8115H388.097L408.04 33.6936H423.586L443.529 88.8115H429.318L426.02 79.0756ZM422.566 68.7115L415.735 48.5331L408.983 68.7115H422.566Z" fill="#FFAB2E"/>
<path d="M71.9168 42.4341H54.4373H53.4974C52.3046 45.9832 50.0352 49.0721 47.0051 51.2713C43.9749 53.4705 40.3346 54.6706 36.5907 54.7046C34.2256 54.7048 31.8837 54.2391 29.6987 53.3342C27.5136 52.4294 25.5282 51.1029 23.8558 49.4307C22.1834 47.7585 20.8567 45.7732 19.9516 43.5882C19.0464 41.4033 18.5805 39.0614 18.5804 36.6964C18.5875 32.6735 19.9414 28.7689 22.4261 25.605C24.9109 22.4412 28.3834 20.2004 32.29 19.24V18.6862V0.942383C14.4265 3.06882 0.572266 18.2605 0.572266 36.6964C0.572266 56.5882 28.2728 87.1201 36.5907 101.527C44.1447 88.443 67.6592 62.0684 71.9168 42.4341Z" fill="#FAFAFA"/>
<path d="M36.5898 0.678223V18.6863V38.1357H54.4344H72.5453C72.5778 37.6524 72.6062 37.1688 72.6062 36.6966C72.6062 16.8055 56.4806 0.679359 36.5898 0.678223Z" fill="#FFAB2E"/>
</svg>
