<svg width="205" height="286" viewBox="0 0 205 286" fill="none" xmlns="http://www.w3.org/2000/svg">
<path d="M202.114 118.538H152.621H149.96C146.583 128.587 140.157 137.333 131.577 143.56C122.997 149.787 112.69 153.185 102.089 153.281C95.3924 153.282 88.7614 151.964 82.5744 149.401C76.3875 146.839 70.7659 143.083 66.0305 138.348C61.2951 133.614 57.5386 127.992 54.9756 121.806C52.4127 115.619 51.0934 108.988 51.0932 102.292C51.1132 90.9008 54.9469 79.8447 61.9824 70.8864C69.018 61.9281 78.8503 55.5834 89.9118 52.8642V51.2959V1.05469C39.3316 7.07566 0.103516 50.0907 0.103516 102.292C0.103516 158.615 78.537 245.065 102.089 285.858C123.478 248.811 190.059 174.132 202.114 118.538Z" fill="#FAFAFA"/>
<path d="M102.09 0.306152V51.2959V106.366H152.616H203.897C203.989 104.998 204.069 103.628 204.069 102.292C204.069 45.9704 158.41 0.309365 102.09 0.306152Z" fill="#FFAB2E"/>
</svg>
