<svg width="446" height="133" viewBox="0 0 446 133" fill="none" xmlns="http://www.w3.org/2000/svg">
<path d="M120.823 89.6507C116.792 89.6507 113.18 88.9964 109.987 87.6878C106.795 86.3792 104.23 84.4425 102.293 81.8776C100.409 79.3128 99.4141 76.2245 99.3094 72.6128H113.599C113.809 74.6542 114.515 76.2245 115.719 77.3237C116.923 78.3706 118.493 78.8941 120.43 78.8941C122.419 78.8941 123.989 78.4491 125.141 77.5593C126.293 76.6171 126.868 75.3347 126.868 73.712C126.868 72.3511 126.397 71.2257 125.455 70.3359C124.565 69.446 123.44 68.7132 122.079 68.1374C120.77 67.5616 118.886 66.9074 116.426 66.1745C112.866 65.0753 109.961 63.9761 107.711 62.8769C105.46 61.7777 103.523 60.155 101.9 58.0089C100.278 55.8628 99.4664 53.0625 99.4664 49.6078C99.4664 44.4781 101.325 40.4738 105.041 37.5949C108.757 34.6636 113.599 33.198 119.566 33.198C125.638 33.198 130.532 34.6636 134.249 37.5949C137.965 40.4738 139.954 44.5043 140.216 49.6863H125.691C125.586 47.9066 124.932 46.5195 123.728 45.525C122.524 44.4781 120.98 43.9546 119.095 43.9546C117.473 43.9546 116.164 44.3996 115.17 45.2894C114.175 46.1269 113.678 47.357 113.678 48.9796C113.678 50.7593 114.515 52.1464 116.19 53.141C117.865 54.1355 120.482 55.2085 124.042 56.3601C127.601 57.564 130.48 58.7156 132.678 59.8148C134.929 60.914 136.866 62.5105 138.489 64.6042C140.111 66.698 140.923 69.3937 140.923 72.6913C140.923 75.832 140.111 78.6847 138.489 81.2495C136.918 83.8144 134.615 85.8558 131.579 87.3737C128.543 88.8917 124.958 89.6507 120.823 89.6507ZM193.939 45.2894L166.459 109.908H152.012L162.062 87.6093L144.239 45.2894H159.235L169.364 72.6913L179.414 45.2894H193.939ZM225.489 44.8183C230.619 44.8183 234.702 46.4933 237.738 49.8433C240.826 53.141 242.37 57.6949 242.37 63.505V89.1011H229.023V65.3109C229.023 62.3796 228.264 60.1027 226.746 58.48C225.228 56.8574 223.186 56.046 220.621 56.046C218.057 56.046 216.015 56.8574 214.497 58.48C212.979 60.1027 212.22 62.3796 212.22 65.3109V89.1011H198.794V45.2894H212.22V51.0996C213.581 49.1628 215.413 47.6449 217.716 46.5457C220.019 45.3941 222.61 44.8183 225.489 44.8183Z" fill="#FAFAFA"/>
<path d="M272.35 33.9832C278.16 33.9832 283.237 35.1347 287.582 37.4379C291.926 39.741 295.276 42.9863 297.632 47.1738C300.039 51.3089 301.243 56.0984 301.243 61.5421C301.243 66.9335 300.039 71.723 297.632 75.9105C295.276 80.098 291.9 83.3433 287.503 85.6464C283.159 87.9495 278.107 89.1011 272.35 89.1011H251.7V33.9832H272.35ZM271.486 77.4808C276.563 77.4808 280.515 76.0937 283.342 73.3195C286.168 70.5452 287.582 66.6195 287.582 61.5421C287.582 56.4648 286.168 52.5128 283.342 49.6863C280.515 46.8597 276.563 45.4464 271.486 45.4464H265.126V77.4808H271.486ZM322.173 33.9832V89.1011H308.746V33.9832H322.173ZM329.625 61.4636C329.625 56.0199 330.803 51.1781 333.159 46.9382C335.514 42.6461 338.786 39.3222 342.973 36.9668C347.213 34.559 352.002 33.3551 357.341 33.3551C363.884 33.3551 369.485 35.0824 374.144 38.5371C378.802 41.9918 381.917 46.7027 383.487 52.6699H368.726C367.627 50.3668 366.057 48.6132 364.015 47.4093C362.026 46.2054 359.749 45.6035 357.184 45.6035C353.049 45.6035 349.699 47.0429 347.134 49.9218C344.57 52.8007 343.287 56.648 343.287 61.4636C343.287 66.2792 344.57 70.1265 347.134 73.0054C349.699 75.8843 353.049 77.3237 357.184 77.3237C359.749 77.3237 362.026 76.7218 364.015 75.5179C366.057 74.314 367.627 72.5605 368.726 70.2573H383.487C381.917 76.2245 378.802 80.9355 374.144 84.3901C369.485 87.7925 363.884 89.4937 357.341 89.4937C352.002 89.4937 347.213 88.3159 342.973 85.9605C338.786 83.5526 335.514 80.2288 333.159 75.989C330.803 71.7491 329.625 66.9074 329.625 61.4636ZM426.02 79.3651H405.449L402.152 89.1011H388.097L408.04 33.9832H423.586L443.529 89.1011H429.318L426.02 79.3651ZM422.566 69.0011L415.735 48.8226L408.983 69.0011H422.566Z" fill="#FFAB2E"/>
<path d="M194.225 123.102C193.076 123.102 192.043 122.902 191.127 122.502C190.227 122.086 189.519 121.519 189.003 120.803C188.487 120.07 188.22 119.229 188.203 118.28H190.627C190.71 119.096 191.043 119.787 191.626 120.353C192.226 120.903 193.092 121.178 194.225 121.178C195.308 121.178 196.157 120.911 196.773 120.378C197.406 119.829 197.723 119.129 197.723 118.28C197.723 117.613 197.54 117.072 197.173 116.656C196.807 116.239 196.349 115.923 195.799 115.706C195.249 115.49 194.508 115.256 193.575 115.007C192.426 114.707 191.501 114.407 190.802 114.107C190.119 113.807 189.528 113.341 189.028 112.708C188.545 112.058 188.303 111.192 188.303 110.109C188.303 109.16 188.545 108.319 189.028 107.586C189.511 106.853 190.186 106.287 191.052 105.887C191.935 105.487 192.942 105.287 194.075 105.287C195.707 105.287 197.04 105.695 198.073 106.512C199.122 107.328 199.713 108.41 199.846 109.76H197.348C197.265 109.093 196.915 108.51 196.299 108.011C195.682 107.494 194.866 107.236 193.85 107.236C192.901 107.236 192.126 107.486 191.526 107.986C190.927 108.469 190.627 109.152 190.627 110.034C190.627 110.667 190.802 111.184 191.152 111.584C191.518 111.983 191.96 112.291 192.476 112.508C193.009 112.708 193.75 112.941 194.7 113.208C195.849 113.524 196.773 113.841 197.473 114.157C198.172 114.457 198.772 114.932 199.272 115.581C199.772 116.214 200.021 117.08 200.021 118.18C200.021 119.029 199.796 119.829 199.347 120.578C198.897 121.328 198.231 121.936 197.348 122.402C196.465 122.868 195.424 123.102 194.225 123.102ZM215.16 109.235L206.915 129.373H204.566L207.265 122.777L201.743 109.235H204.267L208.564 120.328L212.812 109.235H215.16ZM224.117 108.985C225.782 108.985 227.132 109.493 228.164 110.509C229.197 111.509 229.713 112.958 229.713 114.857V122.927H227.465V115.181C227.465 113.816 227.123 112.775 226.44 112.058C225.757 111.325 224.825 110.959 223.642 110.959C222.443 110.959 221.485 111.334 220.769 112.083C220.069 112.833 219.719 113.924 219.719 115.356V122.927H217.446V109.235H219.719V111.184C220.169 110.484 220.777 109.943 221.543 109.56C222.326 109.177 223.184 108.985 224.117 108.985ZM232.578 116.056C232.578 114.64 232.861 113.407 233.427 112.358C233.994 111.292 234.776 110.468 235.776 109.885C236.792 109.302 237.95 109.01 239.249 109.01C240.931 109.01 242.314 109.418 243.396 110.234C244.496 111.051 245.22 112.183 245.57 113.632H243.121C242.888 112.799 242.43 112.142 241.747 111.659C241.081 111.175 240.248 110.934 239.249 110.934C237.95 110.934 236.9 111.384 236.101 112.283C235.301 113.166 234.901 114.424 234.901 116.056C234.901 117.705 235.301 118.979 236.101 119.879C236.9 120.778 237.95 121.228 239.249 121.228C240.248 121.228 241.081 120.995 241.747 120.528C242.414 120.062 242.872 119.396 243.121 118.529H245.57C245.204 119.929 244.471 121.053 243.371 121.902C242.272 122.735 240.898 123.152 239.249 123.152C237.95 123.152 236.792 122.86 235.776 122.277C234.776 121.694 233.994 120.87 233.427 119.804C232.861 118.738 232.578 117.488 232.578 116.056ZM249.328 123.077C248.895 123.077 248.529 122.927 248.229 122.627C247.929 122.327 247.779 121.961 247.779 121.528C247.779 121.095 247.929 120.728 248.229 120.428C248.529 120.128 248.895 119.979 249.328 119.979C249.745 119.979 250.095 120.128 250.378 120.428C250.678 120.728 250.827 121.095 250.827 121.528C250.827 121.961 250.678 122.327 250.378 122.627C250.095 122.927 249.745 123.077 249.328 123.077ZM271.229 105.512V107.361H266.482V122.927H264.208V107.361H259.436V105.512H271.229ZM276.302 111.459C276.701 110.676 277.268 110.068 278.001 109.635C278.75 109.202 279.658 108.985 280.724 108.985V111.334H280.124C277.576 111.334 276.302 112.716 276.302 115.481V122.927H274.028V109.235H276.302V111.459ZM282.499 116.031C282.499 114.632 282.782 113.407 283.349 112.358C283.915 111.292 284.689 110.468 285.672 109.885C286.672 109.302 287.779 109.01 288.995 109.01C290.194 109.01 291.235 109.268 292.118 109.785C293.001 110.301 293.659 110.951 294.092 111.733V109.235H296.391V122.927H294.092V120.378C293.642 121.178 292.968 121.844 292.068 122.377C291.186 122.893 290.153 123.152 288.97 123.152C287.754 123.152 286.655 122.852 285.672 122.252C284.689 121.653 283.915 120.811 283.349 119.729C282.782 118.646 282.499 117.413 282.499 116.031ZM294.092 116.056C294.092 115.023 293.884 114.124 293.467 113.357C293.051 112.591 292.485 112.008 291.768 111.609C291.069 111.192 290.294 110.984 289.445 110.984C288.595 110.984 287.821 111.184 287.121 111.584C286.422 111.983 285.864 112.566 285.447 113.333C285.031 114.099 284.823 114.998 284.823 116.031C284.823 117.08 285.031 117.996 285.447 118.779C285.864 119.545 286.422 120.137 287.121 120.553C287.821 120.953 288.595 121.153 289.445 121.153C290.294 121.153 291.069 120.953 291.768 120.553C292.485 120.137 293.051 119.545 293.467 118.779C293.884 117.996 294.092 117.089 294.092 116.056ZM299.383 116.056C299.383 114.64 299.667 113.407 300.233 112.358C300.799 111.292 301.582 110.468 302.582 109.885C303.598 109.302 304.755 109.01 306.054 109.01C307.737 109.01 309.119 109.418 310.202 110.234C311.301 111.051 312.026 112.183 312.376 113.632H309.927C309.694 112.799 309.236 112.142 308.553 111.659C307.887 111.175 307.054 110.934 306.054 110.934C304.755 110.934 303.706 111.384 302.906 112.283C302.107 113.166 301.707 114.424 301.707 116.056C301.707 117.705 302.107 118.979 302.906 119.879C303.706 120.778 304.755 121.228 306.054 121.228C307.054 121.228 307.887 120.995 308.553 120.528C309.219 120.062 309.677 119.396 309.927 118.529H312.376C312.009 119.929 311.276 121.053 310.177 121.902C309.078 122.735 307.703 123.152 306.054 123.152C304.755 123.152 303.598 122.86 302.582 122.277C301.582 121.694 300.799 120.87 300.233 119.804C299.667 118.738 299.383 117.488 299.383 116.056ZM323.055 122.927L317.683 116.88V122.927H315.409V104.438H317.683V115.306L322.955 109.235H326.128L319.682 116.056L326.153 122.927H323.055ZM328.992 123.077C328.559 123.077 328.193 122.927 327.893 122.627C327.593 122.327 327.443 121.961 327.443 121.528C327.443 121.095 327.593 120.728 327.893 120.428C328.193 120.128 328.559 119.979 328.992 119.979C329.409 119.979 329.759 120.128 330.042 120.428C330.342 120.728 330.492 121.095 330.492 121.528C330.492 121.961 330.342 122.327 330.042 122.627C329.759 122.927 329.409 123.077 328.992 123.077ZM349.344 122.927L345.197 115.806H342.448V122.927H340.175V105.512H345.796C347.112 105.512 348.22 105.737 349.119 106.187C350.036 106.637 350.719 107.244 351.168 108.011C351.618 108.777 351.843 109.651 351.843 110.634C351.843 111.833 351.493 112.891 350.793 113.807C350.111 114.723 349.078 115.331 347.695 115.631L352.068 122.927H349.344ZM342.448 113.982H345.796C347.029 113.982 347.953 113.682 348.57 113.083C349.186 112.466 349.494 111.65 349.494 110.634C349.494 109.601 349.186 108.802 348.57 108.236C347.97 107.669 347.046 107.386 345.796 107.386H342.448V113.982ZM367.868 115.556C367.868 115.989 367.843 116.447 367.793 116.93H356.85C356.933 118.28 357.391 119.337 358.224 120.103C359.073 120.853 360.098 121.228 361.297 121.228C362.28 121.228 363.096 121.003 363.746 120.553C364.412 120.087 364.878 119.47 365.145 118.704H367.593C367.227 120.02 366.494 121.095 365.395 121.927C364.295 122.744 362.929 123.152 361.297 123.152C359.998 123.152 358.832 122.86 357.799 122.277C356.783 121.694 355.984 120.87 355.401 119.804C354.818 118.721 354.526 117.472 354.526 116.056C354.526 114.64 354.809 113.399 355.376 112.333C355.942 111.267 356.733 110.451 357.749 109.885C358.782 109.302 359.965 109.01 361.297 109.01C362.596 109.01 363.746 109.293 364.745 109.86C365.744 110.426 366.511 111.209 367.044 112.208C367.593 113.191 367.868 114.307 367.868 115.556ZM365.52 115.081C365.52 114.215 365.328 113.474 364.945 112.858C364.562 112.225 364.037 111.75 363.371 111.434C362.721 111.101 361.997 110.934 361.197 110.934C360.048 110.934 359.065 111.3 358.249 112.033C357.449 112.766 356.991 113.782 356.875 115.081H365.52ZM370.02 116.031C370.02 114.632 370.303 113.407 370.869 112.358C371.436 111.292 372.21 110.468 373.193 109.885C374.192 109.302 375.308 109.01 376.541 109.01C377.724 109.01 378.756 109.277 379.639 109.81C380.539 110.326 381.196 110.967 381.613 111.733V109.235H383.911V129.423H381.613V120.403C381.18 121.169 380.514 121.819 379.614 122.352C378.715 122.885 377.665 123.152 376.466 123.152C375.267 123.152 374.176 122.852 373.193 122.252C372.21 121.653 371.436 120.811 370.869 119.729C370.303 118.646 370.02 117.413 370.02 116.031ZM381.613 116.056C381.613 115.023 381.405 114.124 380.988 113.357C380.572 112.591 380.006 112.008 379.289 111.609C378.59 111.192 377.815 110.984 376.966 110.984C376.116 110.984 375.342 111.184 374.642 111.584C373.942 111.983 373.384 112.566 372.968 113.333C372.552 114.099 372.343 114.998 372.343 116.031C372.343 117.08 372.552 117.996 372.968 118.779C373.384 119.545 373.942 120.137 374.642 120.553C375.342 120.953 376.116 121.153 376.966 121.153C377.815 121.153 378.59 120.953 379.289 120.553C380.006 120.137 380.572 119.545 380.988 118.779C381.405 117.996 381.613 117.089 381.613 116.056ZM399.896 109.235V122.927H397.623V120.903C397.19 121.603 396.582 122.152 395.799 122.552C395.033 122.935 394.183 123.127 393.25 123.127C392.184 123.127 391.227 122.91 390.377 122.477C389.528 122.027 388.853 121.361 388.353 120.478C387.87 119.595 387.629 118.521 387.629 117.255V109.235H389.877V116.955C389.877 118.305 390.219 119.346 390.902 120.078C391.585 120.795 392.518 121.153 393.7 121.153C394.916 121.153 395.874 120.778 396.573 120.028C397.273 119.279 397.623 118.188 397.623 116.755V109.235H399.896ZM416.228 115.556C416.228 115.989 416.203 116.447 416.153 116.93H405.209C405.293 118.28 405.751 119.337 406.584 120.103C407.433 120.853 408.458 121.228 409.657 121.228C410.64 121.228 411.456 121.003 412.105 120.553C412.772 120.087 413.238 119.47 413.504 118.704H415.953C415.587 120.02 414.854 121.095 413.754 121.927C412.655 122.744 411.289 123.152 409.657 123.152C408.358 123.152 407.192 122.86 406.159 122.277C405.143 121.694 404.343 120.87 403.76 119.804C403.177 118.721 402.886 117.472 402.886 116.056C402.886 114.64 403.169 113.399 403.735 112.333C404.302 111.267 405.093 110.451 406.109 109.885C407.142 109.302 408.324 109.01 409.657 109.01C410.956 109.01 412.105 109.293 413.105 109.86C414.104 110.426 414.87 111.209 415.403 112.208C415.953 113.191 416.228 114.307 416.228 115.556ZM413.879 115.081C413.879 114.215 413.688 113.474 413.305 112.858C412.921 112.225 412.397 111.75 411.731 111.434C411.081 111.101 410.356 110.934 409.557 110.934C408.408 110.934 407.425 111.3 406.609 112.033C405.809 112.766 405.351 113.782 405.234 115.081H413.879ZM424.076 123.152C423.027 123.152 422.086 122.977 421.253 122.627C420.42 122.26 419.762 121.761 419.279 121.128C418.796 120.478 418.529 119.737 418.479 118.904H420.828C420.895 119.587 421.211 120.145 421.777 120.578C422.36 121.011 423.118 121.228 424.051 121.228C424.917 121.228 425.6 121.036 426.1 120.653C426.6 120.27 426.849 119.787 426.849 119.204C426.849 118.604 426.583 118.163 426.05 117.88C425.517 117.58 424.692 117.288 423.576 117.005C422.56 116.739 421.727 116.472 421.078 116.206C420.445 115.923 419.895 115.515 419.429 114.982C418.979 114.432 418.754 113.716 418.754 112.833C418.754 112.133 418.962 111.492 419.379 110.909C419.795 110.326 420.387 109.868 421.153 109.535C421.919 109.185 422.794 109.01 423.776 109.01C425.292 109.01 426.516 109.393 427.449 110.159C428.382 110.926 428.882 111.975 428.948 113.308H426.675C426.625 112.591 426.333 112.017 425.8 111.584C425.284 111.15 424.584 110.934 423.701 110.934C422.885 110.934 422.236 111.109 421.752 111.459C421.269 111.808 421.028 112.266 421.028 112.833C421.028 113.283 421.169 113.657 421.453 113.957C421.752 114.24 422.119 114.473 422.552 114.657C423.002 114.823 423.618 115.015 424.401 115.231C425.384 115.498 426.183 115.764 426.799 116.031C427.416 116.281 427.94 116.664 428.374 117.18C428.823 117.697 429.056 118.371 429.073 119.204C429.073 119.954 428.865 120.628 428.448 121.228C428.032 121.827 427.441 122.302 426.675 122.652C425.925 122.985 425.059 123.152 424.076 123.152ZM435.056 111.109V119.179C435.056 119.845 435.198 120.32 435.481 120.603C435.764 120.87 436.255 121.003 436.955 121.003H438.629V122.927H436.58C435.314 122.927 434.365 122.635 433.732 122.052C433.099 121.469 432.782 120.512 432.782 119.179V111.109H431.008V109.235H432.782V105.787H435.056V109.235H438.629V111.109H435.056ZM442.108 123.077C441.675 123.077 441.309 122.927 441.009 122.627C440.709 122.327 440.559 121.961 440.559 121.528C440.559 121.095 440.709 120.728 441.009 120.428C441.309 120.128 441.675 119.979 442.108 119.979C442.525 119.979 442.874 120.128 443.158 120.428C443.457 120.728 443.607 121.095 443.607 121.528C443.607 121.961 443.457 122.327 443.158 122.627C442.874 122.927 442.525 123.077 442.108 123.077Z" fill="#FAFAFA"/>
<path d="M71.9168 42.7237H54.4373H53.4974C52.3046 46.2727 50.0352 49.3616 47.0051 51.5608C43.9749 53.7601 40.3346 54.9602 36.5907 54.9941C34.2256 54.9944 31.8837 54.5287 29.6987 53.6238C27.5136 52.7189 25.5282 51.3925 23.8558 49.7203C22.1834 48.048 20.8567 46.0627 19.9516 43.8778C19.0464 41.6928 18.5805 39.351 18.5804 36.986C18.5875 32.9631 19.9414 29.0584 22.4261 25.8946C24.9109 22.7307 28.3834 20.4899 32.29 19.5296V18.9757V1.23193C14.4265 3.35837 0.572266 18.5501 0.572266 36.986C0.572266 56.8778 28.2728 87.4096 36.5907 101.817C44.1447 88.7326 67.6592 62.3579 71.9168 42.7237Z" fill="#FAFAFA"/>
<path d="M36.5898 0.967773V18.9759V38.4253H54.4344H72.5453C72.5778 37.942 72.6062 37.4583 72.6062 36.9861C72.6062 17.0951 56.4806 0.96891 36.5898 0.967773Z" fill="#FFAB2E"/>
</svg>
