<svg width="14" height="11" viewBox="0 0 14 11" fill="none" xmlns="http://www.w3.org/2000/svg">
    <path d="M7.00002 0C10.4889 0 13.3915 2.37096 14 5.5C13.3915 8.62901 10.4889 11 7.00002 11C3.51111 11 0.60854 8.62901 0 5.5C0.60854 2.37096 3.51111 0 7.00002 0ZM7.00002 9.77778C9.74059 9.77778 12.0857 7.97622 12.6793 5.5C12.0857 3.0238 9.74059 1.22222 7.00002 1.22222C4.25939 1.22222 1.9143 3.0238 1.32068 5.5C1.9143 7.97622 4.25939 9.77778 7.00002 9.77778ZM7.00002 8.25C5.39194 8.25 4.08835 7.01879 4.08835 5.5C4.08835 3.98122 5.39194 2.75 7.00002 2.75C8.60802 2.75 9.91166 3.98122 9.91166 5.5C9.91166 7.01879 8.60802 8.25 7.00002 8.25ZM7.00002 7.02778C7.89338 7.02778 8.6176 6.34376 8.6176 5.5C8.6176 4.65624 7.89338 3.97222 7.00002 3.97222C6.10666 3.97222 5.38241 4.65624 5.38241 5.5C5.38241 6.34376 6.10666 7.02778 7.00002 7.02778Z" fill="white"/>
</svg>